<?xml version="1.0" encoding="utf-8"?>
<!-- Generator: Adobe Illustrator 26.3.1, SVG Export Plug-In . SVG Version: 6.00 Build 0)  -->
<svg version="1.1" id="Layer_1" xmlns="http://www.w3.org/2000/svg" xmlns:xlink="http://www.w3.org/1999/xlink" x="0px" y="0px"
	 viewBox="0 0 429 401" style="enable-background:new 0 0 429 401;" xml:space="preserve">
<style type="text/css">
	.st0{fill:#FFFFFF;stroke:#000000;stroke-width:9;stroke-miterlimit:10;}
</style>
<path class="st0" d="M286.2,83.5c37.3,0,74.7,0,112,0c1.5,0,3,0,4.5,0c8.5,0.3,11.4,4.2,9,12.4c-3.8,13.4-7.8,26.8-11.7,40.2
	c-6.6,22.6-13.2,45.3-19.8,67.9c-2.6,9-7.8,12.9-17.1,12.9c-50.3,0-100.7,0-151,0c-9.1,0-14.1-3.6-17.1-12.4
	c-12-34.9-23.9-69.8-35.8-104.7c-3.8-11.2-0.1-16.4,12-16.4C209.5,83.5,247.9,83.5,286.2,83.5z"/>
<path class="st0" d="M266,293c-38.2,0-76.4-0.1-114.5,0.1c-4.2,0-6-1.2-7.3-5.2c-26.3-76-52.7-152-79-228c-1.3-3.8-2.9-5.2-7-5
	C48,55.2,37.9,55,27.7,54.9C16.3,54.8,7.6,46.3,7.4,35.2C7.2,24.2,16.3,15,27.8,15c19.7-0.1,39.3,0.1,59-0.1c4-0.1,5.8,1.1,7.1,4.9
	c25.3,73.2,50.7,146.4,76.2,219.5c1.6,4.5,2.2,10.5,5.5,12.9c3,2.3,8.9,0.8,13.6,0.8c63.9,0,127.7,0,191.6,0
	c14.8,0,24.5,13.7,19.4,27.1c-3,7.9-10.2,12.8-19,12.8C342.7,293,304.4,293,266,293z"/>
<path class="st0" d="M374.2,343.8c-0.1,19.7-15.9,35.3-35.8,35.1c-19.2-0.1-35.2-16.4-35-35.6c0.2-19.3,16.2-35.2,35.5-35.2
	C358.5,308.1,374.2,324,374.2,343.8z"/>
<path class="st0" d="M189.6,307.8c19.5,0.1,35.3,15.9,35.3,35.2c0,19.4-16.4,35.7-35.7,35.5c-19.6-0.2-35.2-16.2-35.1-35.9
	C154.2,323.2,170,307.7,189.6,307.8z"/>
</svg>
