<?xml version="1.0" encoding="utf-8"?>
<!-- Generator: Adobe Illustrator 26.2.1, SVG Export Plug-In . SVG Version: 6.00 Build 0)  -->
<svg version="1.1" id="Layer_1" xmlns="http://www.w3.org/2000/svg" xmlns:xlink="http://www.w3.org/1999/xlink" x="0px" y="0px"
	 viewBox="0 0 345 345" style="enable-background:new 0 0 345 345;" xml:space="preserve">
<style type="text/css">
	.st0{fill:#FFFFFF;}
</style>
<g>
	<path d="M341.54,173.52c0-92.79-75.22-168.02-168.02-168.02C80.72,5.5,5.5,80.72,5.5,173.52c0,83.86,61.44,153.37,141.77,165.98
		V222.09H104.6v-48.57h42.66V136.5c0-42.11,25.08-65.37,63.46-65.37c18.38,0,37.61,3.28,37.61,3.28v41.35h-21.19
		c-20.87,0-27.38,12.95-27.38,26.24v31.52h46.6l-7.45,48.57h-39.15v117.41C280.09,326.89,341.54,257.38,341.54,173.52z"/>
	<path class="st0" d="M238.92,222.09l7.45-48.57h-46.6V142c0-13.29,6.51-26.24,27.38-26.24h21.19V74.41c0,0-19.23-3.28-37.61-3.28
		c-38.38,0-63.46,23.26-63.46,65.37v37.02H104.6v48.57h42.66v117.41c8.55,1.34,17.32,2.04,26.25,2.04c8.93,0,17.7-0.7,26.25-2.04
		V222.09H238.92z"/>
</g>
</svg>
