<?xml version="1.0" encoding="utf-8"?>
<!-- Generator: Adobe Illustrator 26.2.1, SVG Export Plug-In . SVG Version: 6.00 Build 0)  -->
<svg version="1.1" id="Layer_1" xmlns="http://www.w3.org/2000/svg" xmlns:xlink="http://www.w3.org/1999/xlink" x="0px" y="0px"
	 viewBox="0 0 214 218" style="enable-background:new 0 0 214 218;" xml:space="preserve">
<style type="text/css">
	.st0{fill:#FFFFFF;}
</style>
<path class="st0" d="M89.8,114.9c0-8.5,0-17.1,0-25.6c0-16.6,0-33.2,0-49.8c0-8.9,5.1-15,13.5-16.5c8.3-1.5,16.8,4.5,18,12.9
	c0.3,2.3,0.3,4.7,0.3,7c0,9.1,0,18.3,0,27.4c0,0.6,0.1,1.2,0.1,1.7c12.4-3.1,16.8-1.4,22.9,8.7c10.7-4.7,17.6-2.4,23.6,7.6
	c2.6-0.7,5.2-1.7,7.8-1.8c9.2-0.6,16.6,5.5,16.9,14.7c0.4,11,0.2,22-0.1,33c-0.4,11.1-3.6,21.6-6.8,32.1c-2.8,9.3-5.5,18.6-8,28
	c-0.6,2.3-0.6,4.8-0.8,7.2c-0.2,2.5-1.9,4.3-4.1,4.2c-2.2-0.1-3.8-1.9-3.8-4.5c0.1-8,2.2-15.5,4.5-23.1c3.2-10.6,6.6-21.1,9.4-31.8
	c1.3-5.2,1.7-10.8,1.9-16.2c0.3-9,0.1-17.9,0.1-26.9c0-5.3-3.2-9-7.8-9c-4.9,0-8.1,3.5-8.1,8.9c0,3.4,0,6.9,0,10.3
	c0,2.9-1.7,4.8-4.1,4.7c-2.3-0.1-3.9-2-3.9-4.7c0-6.2,0.1-12.4,0-18.6c-0.1-4.7-2.9-8.1-7-8.4c-5.1-0.4-8.8,2.8-8.9,8
	c-0.1,3.7,0,7.4,0,11.1c0,2.8-1.5,4.6-3.8,4.7c-2.4,0.1-4.1-1.7-4.1-4.7c-0.1-6.2,0-12.4,0-18.6c0-5-3.1-8.4-7.7-8.4
	c-4.8-0.1-8.1,3.2-8.1,8.3c-0.1,5.6,0,11.2,0,16.9c0,0.9,0,1.8-0.1,2.8c-0.2,2.4-1.9,4-4.1,3.8c-2.1-0.1-3.7-1.7-3.7-4
	c-0.1-3.2,0-6.4,0-9.6c0-19,0-38.1,0-57.1c0-5.1-3.4-8.8-7.9-8.8c-4.7,0-8.1,3.6-8.1,8.7c0,30,0,59.9,0,89.8c0,3.6-2.2,5.5-5.4,4.5
	c-1.2-0.4-2.4-1.6-3-2.7c-4.8-8.2-9.5-16.4-14.2-24.6c-1.8-3-5.1-4.6-8-4.1c-3.6,0.6-6.4,3.2-6.8,6.8c-0.2,1.6,0,3.6,0.8,4.8
	c8.5,12.6,12.7,26.9,16.8,41.2c2.5,8.8,8,16,12.9,23.5c4.4,6.7,9,13.1,13.6,19.7c2,2.9,1.9,5-0.2,6.6c-2.1,1.5-4.3,0.9-6.1-1.8
	c-7.3-10.8-14.5-21.5-21.7-32.3c-4.3-6.5-6.6-13.9-8.5-21.4c-2.8-10.8-7-20.9-12.9-30.4c-4.5-7.2-3.1-15.6,2.9-20.7
	c7.6-6.5,18.7-4.6,24.1,4.1c2.2,3.5,4.1,7.1,6.2,10.7c0.4,0.7,0.9,1.4,1.3,2.1C89.4,115,89.6,115,89.8,114.9z"/>
<path class="st0" d="M24.7,22.7c6.8,0,13.6,0,20.3,0c10.3,0,20.6,0,30.9,0c0.7,0,1.3,0,2,0c2.3,0.3,4,2.1,3.9,4.1
	c-0.1,2.1-1.9,3.8-4.2,3.8c-6.7,0-13.4,0-20.1,0c-10.2,0-20.5,0-30.7,0c-0.7,0-1.5,0-3,0c2.5,2.5,4.6,4.6,6.7,6.7
	c0.8,0.8,1.7,1.6,2.5,2.5c1.5,1.8,1.4,4-0.1,5.5c-1.4,1.5-3.7,1.5-5.5,0.1c-1.2-1-2.3-2.2-3.4-3.3c-3.9-3.9-7.8-7.8-11.7-11.7
	c-2.8-2.8-2.8-4.5-0.1-7.2c4.8-4.9,9.7-9.8,14.6-14.6C28.9,6.5,31.4,6.3,33,8c1.7,1.8,1.5,4-0.6,6.2c-2.7,2.6-5.4,5.2-8.1,7.8
	C24.4,22.2,24.5,22.5,24.7,22.7z"/>
<path class="st0" d="M186.8,30.7c-1.9,0-3.8,0-5.7,0c-15.4,0-30.8,0-46.2,0c-0.7,0-1.4,0.1-2-0.1c-1.9-0.4-3.1-1.7-3.3-3.6
	s0.8-3.4,2.8-4c0.9-0.3,2-0.3,3-0.3c16.3,0,32.7,0,49,0c0.8,0,1.6,0,3.1,0c-2.7-2.8-5-5.1-7.4-7.4c-0.7-0.7-1.5-1.4-2.1-2.2
	c-1.2-1.6-0.9-4,0.6-5.2c1.6-1.3,3.6-1.5,5.1-0.1c5.6,5.4,11.1,10.9,16.5,16.5c1.4,1.5,1.4,3.5-0.1,5c-5.3,5.4-10.7,10.8-16.2,16.2
	c-1.6,1.6-4,1.4-5.4-0.1c-1.6-1.6-1.7-3.8,0-5.6c2.8-2.9,5.7-5.6,8.6-8.4C187,31.1,186.9,30.9,186.8,30.7z"/>
</svg>
