<?xml version="1.0" encoding="utf-8"?>
<!-- Generator: Adobe Illustrator 26.3.1, SVG Export Plug-In . SVG Version: 6.00 Build 0)  -->
<svg version="1.1" id="Layer_1" xmlns="http://www.w3.org/2000/svg" xmlns:xlink="http://www.w3.org/1999/xlink" x="0px" y="0px"
	 viewBox="0 0 200 33.9" style="enable-background:new 0 0 200 33.9;" xml:space="preserve">
<style type="text/css">
	.st0{fill:#FA5A27;}
</style>
<path class="st0" d="M17.8,0l4.2,13h13.6l-11,8l4.2,13l-11-8l-11,8L11,21L0,13h13.6L17.8,0z"/>
<path class="st0" d="M58.9,0l4.2,13h13.6l-11,8l4.2,13l-11-8l-11,8l4.2-13l-11-8h13.6L58.9,0z"/>
<path class="st0" d="M100,0l4.2,13h13.6l-11,8l4.2,13l-11-8l-11,8l4.2-13l-11-8h13.6L100,0z"/>
<path class="st0" d="M141.1,0l4.2,13h13.6l-11,8l4.2,13l-11-8l-11,8l4.2-13l-11-8h13.6L141.1,0z"/>
<path class="st0" d="M182.2,0l4.2,13H200l-11,8l4.2,13l-11-8l-11,8l4.2-13l-11-8h13.6L182.2,0z"/>
</svg>
