<?xml version="1.0" encoding="utf-8"?>
<!-- Generator: Adobe Illustrator 26.2.1, SVG Export Plug-In . SVG Version: 6.00 Build 0)  -->
<svg version="1.1" id="Layer_1" xmlns="http://www.w3.org/2000/svg" xmlns:xlink="http://www.w3.org/1999/xlink" x="0px" y="0px"
	 viewBox="0 0 345 345" style="enable-background:new 0 0 345 345;" xml:space="preserve">
<style type="text/css">
	.st0{fill:#FFFFFF;}
</style>
<circle cx="173.5" cy="172.38" r="167.61"/>
<g>
	<g>
		<path class="st0" d="M225.53,108.98c-6.36,0-11.52,5.16-11.52,11.52c0,6.36,5.16,11.52,11.52,11.52c6.36,0,11.52-5.16,11.52-11.52
			C237.05,114.13,231.89,108.98,225.53,108.98z"/>
		<path class="st0" d="M174.31,123.75c-26.69,0-48.4,21.71-48.4,48.4c0,26.69,21.71,48.4,48.4,48.4c26.69,0,48.4-21.71,48.4-48.4
			C222.7,145.46,200.99,123.75,174.31,123.75z M174.31,203.15c-17.1,0-31-13.91-31-31s13.91-31,31-31c17.09,0,31,13.91,31,31
			S191.4,203.15,174.31,203.15z"/>
		<path class="st0" d="M212.73,270.41h-78.46c-32.55,0-59.03-26.48-59.03-59.03v-78.47c0-32.55,26.48-59.03,59.03-59.03h78.46
			c32.55,0,59.03,26.48,59.03,59.03v78.47C271.76,243.93,245.28,270.41,212.73,270.41z M134.27,92.38
			c-22.36,0-40.54,18.18-40.54,40.54v78.47c0,22.36,18.19,40.54,40.54,40.54h78.46c22.36,0,40.54-18.19,40.54-40.54v-78.47
			c0-22.36-18.19-40.54-40.54-40.54H134.27z"/>
	</g>
</g>
</svg>
