<?xml version="1.0" encoding="UTF-8"?><svg id="Layer_1" xmlns="http://www.w3.org/2000/svg" viewBox="0 0 90 90"><defs><style>.cls-1{fill:#231f20;}</style></defs><path class="cls-1" d="m42.19,30.66v6.54h-11.14v-8.1c0-5.71,3.27-8.57,9.81-8.57h8.41c6.64,0,9.97,2.86,9.97,8.57v6.31c0,2.39-.35,4.45-1.05,6.19-.7,1.74-1.83,3.65-3.39,5.72l-9.97,14.56h14.56v8.18h-28.11v-7.55l13.71-18.38c1.3-1.61,2.17-3.04,2.61-4.28.44-1.25.66-2.78.66-4.59v-4.6c0-1.3-.7-1.95-2.1-1.95h-1.95c-1.35,0-2.02.65-2.02,1.95Z"/><path class="cls-1" d="m45.23.61C20.55.61.54,20.62.54,45.31s20.01,44.69,44.69,44.69,44.69-20.01,44.69-44.69S69.91.61,45.23.61Zm0,82.13c-20.68,0-37.44-16.76-37.44-37.44S24.55,7.87,45.23,7.87s37.44,16.76,37.44,37.44-16.76,37.44-37.44,37.44Z"/></svg>