<?xml version="1.0" encoding="UTF-8"?><svg id="Layer_1" xmlns="http://www.w3.org/2000/svg" viewBox="0 0 90 90"><defs><style>.cls-1{fill:#231f20;}</style></defs><path class="cls-1" d="m41.86,30.26v5.88h-11.13v-7.45c0-5.75,3.29-8.62,9.88-8.62h8.7c6.64,0,9.96,2.88,9.96,8.62v8.55c0,3.87-1.18,6.3-3.53,7.29,2.35.89,3.53,3.14,3.53,6.74v9.96c0,5.8-3.32,8.7-9.96,8.7h-8.7c-6.59,0-9.88-2.9-9.88-8.7v-7.29h11.13v5.8c0,1.31.71,1.96,2.12,1.96h2.12c1.41,0,2.12-.65,2.12-1.96v-9.25c0-.73-.16-1.24-.47-1.53-.31-.29-.86-.43-1.65-.43h-6.12v-7.76h6.12c.78,0,1.33-.14,1.65-.43.31-.29.47-.77.47-1.45v-8.63c0-1.31-.71-1.96-2.12-1.96h-2.12c-1.41,0-2.12.65-2.12,1.96Z"/><path class="cls-1" d="m45,0C20.15,0,0,20.15,0,45s20.15,45,45,45,45-20.15,45-45S69.85,0,45,0Zm0,82.69c-20.82,0-37.69-16.88-37.69-37.69S24.18,7.31,45,7.31s37.69,16.88,37.69,37.69-16.88,37.69-37.69,37.69Z"/></svg>