<?xml version="1.0" encoding="UTF-8"?><svg id="Layer_1" xmlns="http://www.w3.org/2000/svg" viewBox="0 0 90 90"><defs><style>.cls-1{fill:#231f20;}</style></defs><path class="cls-1" d="m42.32,37.71h7.76c6.64,0,9.96,2.88,9.96,8.62v14.9c0,5.8-3.32,8.7-9.96,8.7h-9.33c-6.64,0-9.96-2.9-9.96-8.7v-8.15h11.21v6.66c0,1.31.71,1.96,2.12,1.96h2.74c1.41,0,2.12-.65,2.12-1.96v-11.84c0-1.31-.7-1.96-2.12-1.96h-15.6v-25.87h28.23v8.23h-17.17v9.41Z"/><path class="cls-1" d="m45.42,0C20.56,0,.42,20.15.42,45s20.15,45,45,45,45-20.15,45-45S70.27,0,45.42,0Zm0,82.69c-20.82,0-37.69-16.88-37.69-37.69S24.6,7.31,45.42,7.31s37.69,16.88,37.69,37.69-16.88,37.69-37.69,37.69Z"/></svg>