<?xml version="1.0" encoding="UTF-8"?><svg id="Layer_1" xmlns="http://www.w3.org/2000/svg" viewBox="0 0 90 90"><defs><style>.cls-1{fill:#231f20;}</style></defs><path class="cls-1" d="m41.23,40.49h8.55c6.64,0,9.96,2.88,9.96,8.62v12.08c0,5.8-3.32,8.7-9.96,8.7h-9.57c-6.64,0-9.96-2.9-9.96-8.7V28.65c0-5.75,3.32-8.62,9.96-8.62h9.02c6.64,0,9.96,2.88,9.96,8.62v6.74h-10.98v-5.18c0-1.31-.7-1.96-2.12-1.96h-2.82c-1.36,0-2.04.65-2.04,1.96v10.27Zm7.53,19.21v-9.33c0-1.31-.7-1.96-2.12-1.96h-5.41v11.29c0,1.31.68,1.96,2.04,1.96h3.37c1.41,0,2.12-.65,2.12-1.96Z"/><path class="cls-1" d="m45-.04C20.15-.04,0,20.1,0,44.96s20.15,45,45,45,45-20.15,45-45S69.85-.04,45-.04Zm0,82.69c-20.82,0-37.69-16.88-37.69-37.69S24.18,7.26,45,7.26s37.69,16.88,37.69,37.69-16.88,37.69-37.69,37.69Z"/></svg>