<?xml version="1.0" encoding="utf-8"?>
<!-- Generator: Adobe Illustrator 26.2.1, SVG Export Plug-In . SVG Version: 6.00 Build 0)  -->
<svg version="1.1" id="Layer_1" xmlns="http://www.w3.org/2000/svg" xmlns:xlink="http://www.w3.org/1999/xlink" x="0px" y="0px"
	 viewBox="0 0 550 145" style="enable-background:new 0 0 550 145;" xml:space="preserve">
<style type="text/css">
	.st0{fill:#F05B27;}
	.st1{fill:#FFFFFF;}
</style>
<g>
	<path class="st0" d="M119.5,60.5c6.3-1.2,11.5-4.5,16.4-9.7c0.1,1.7,0.3,2.8,0.3,3.9c0,22.2,0,44.4,0,66.6c0,6.7-2.3,12.4-8,16.8
		c0-4,0.1-8.1,0-12.1c-0.1-5.1,0.1-10.3-0.7-15.4c-1.9-11.4-12.2-19.9-23.7-20c-14.8-0.1-29.7-0.2-44.5,0
		c-13.5,0.2-24.1,11.3-24.5,25.2c-0.2,6.7,0,13.3,0,20c0,1.3,0,2.5,0,4.6c-5.5-3.7-8-8.4-9.3-13.9c-0.4-1.8-0.5-3.7-0.5-5.6
		c0-22.2,0-44.4,0-66.6c0-0.8,0.1-1.6,0.2-3.4c6.6,7.1,14,10.5,23.4,10.3"/>
	<path class="st0" d="M80.3,145c-9.9,0-19.8,0-29.8,0c-1.2,0-2.3,0-3.5,0c-6.3-0.3-6.6-0.6-6.6-6.8c0-7.4,0-14.7,0-22.1
		c0.1-11.5,8.3-19.9,19.9-19.9c14-0.1,28-0.1,42,0c11.6,0.1,19.9,8.3,20,19.8c0.1,7.9-0.1,15.9,0.1,23.8c0,2.4-0.7,3.8-3.1,4.2
		c-2.5,0.4-5.1,1-7.6,1C101.3,145,90.8,145,80.3,145z"/>
	<path class="st0" d="M141.7,97.3c0-9.3,0-18.7,0-28c0-1.1,0.5-2.2,0.8-3.3c1.2,0.3,2.5,0.4,3.5,1c5.7,3.6,9.7,8.6,10.6,15.3
		c1.5,11.4,2.6,22.9,3.3,34.4c0.5,7-4.7,12.9-11.5,14.2c-4.7,0.9-6.6-0.6-6.6-5.4C141.7,116.2,141.7,106.8,141.7,97.3z"/>
	<path class="st0" d="M19.2,97.9c0,9.2,0,18.4,0,27.6c0,5-1.9,6.5-6.8,5.5c-6.9-1.4-11.9-7.5-11.4-14.7c0.9-11,1.8-22.1,3.2-33.1
		c0.9-7.2,5-12.7,11.2-16.5c2.9-1.7,3.7-1.3,3.7,2.1C19.2,78.6,19.2,88.2,19.2,97.9z"/>
	<path class="st0" d="M129.9,25.6c-3.4,0-6.3-2.1-7.5-5c-1,0.4-2,0.6-3.2,0.6c-4.5,0-8.1-3.6-8.1-8.1c0-1.4,0.3-2.7,0.9-3.8
		c-3.7-0.8-6.4-4-6.4-7.9c0-0.4,0-0.8,0.1-1.2c-0.8-0.1-1.7-0.2-2.7-0.3L57.8,0.4c-1.4,0.1-2.4,0.2-3.4,0.4
		c-14,1.7-24.7,10.9-28.5,24.4c-3.8,13.4,2.8,26,15.3,29.5l74.8,0.6c8.9-0.6,17.1-7.4,19.3-16.3c1.3-4.9,1-10.1-0.6-15
		C133.4,25,131.8,25.6,129.9,25.6z"/>
</g>
<g>
	<path class="st1" d="M193,52.9v-9.2c0-1.5-0.8-2.2-2.5-2.2h-9.7c-5,0-8.5-1.1-10.6-3.3c-2.1-2.2-3.1-5.4-3.1-9.5V15.3
		c0-8.4,4.9-12.6,14.8-12.6h13.9c9.9,0,14.8,4.2,14.8,12.6v7.8h-17.7v-5.5c0-1.5-0.8-2.2-2.5-2.2h-2.9c-1.7,0-2.5,0.7-2.5,2.2v9.6
		c0,1.5,0.8,2.2,2.5,2.2h9.5c5,0,8.6,1.1,10.7,3.1s3.2,5.2,3.2,9.2v13.4c0,8.4-4.9,12.6-14.8,12.6h-13.8c-9.9,0-14.9-4.2-14.9-12.6
		v-7.8H185v5.5c0,1.5,0.8,2.2,2.5,2.2h2.9C192.2,55.2,193,54.4,193,52.9z"/>
	<path class="st1" d="M245,2.7h17.8v52.5c0,8.4-5,12.6-14.9,12.6h-15c-9.9,0-14.9-4.2-14.9-12.6V2.7h17.8v50.2
		c0,1.5,0.8,2.2,2.5,2.2h4.3c1.7,0,2.5-0.7,2.5-2.2V2.7z"/>
	<path class="st1" d="M288.6,44.7v23.1h-17.8V2.7H301c9.9,0,14.9,4.2,14.9,12.6v16.8c0,6.4-2.9,10.4-8.7,11.9l12,23.8h-19.1
		l-10.4-23.1C289.7,44.7,288.6,44.7,288.6,44.7z M295.6,15.4h-7v17.3h7c1.7,0,2.5-0.7,2.5-2.2V17.6
		C298.1,16.1,297.3,15.4,295.6,15.4z"/>
	<path class="st1" d="M353.8,2.7h18.5l-16,65.1h-20.6l-16-65.1h18.5l7.8,43.5L353.8,2.7z"/>
	<path class="st1" d="M377,2.7h17.8v65.1H377V2.7z"/>
	<path class="st1" d="M433.7,2.7h18.5l-16,65.1h-20.6l-16-65.1H418l7.8,43.5L433.7,2.7z"/>
	<path class="st1" d="M490.2,67.8l-2-9.7h-15.6l-2.1,9.7h-17.5l16.7-65.1h21.6L508,67.8H490.2z M475.2,45.5h10.1l-5-23.4L475.2,45.5
		z"/>
	<path class="st1" d="M529.8,55.2H550v12.7h-37.9V2.7h17.8L529.8,55.2L529.8,55.2z"/>
</g>
<g>
	<path class="st1" d="M166.6,76.2h30.6c10.1,0,15.1,4.3,15.1,12.8v18.9c0,8.5-5,12.8-15.1,12.8h-12.6v21.6h-18V76.2z M194.3,105.5
		V91.3c0-1.5-0.9-2.3-2.6-2.3h-7.1v18.7h7.1C193.4,107.8,194.3,107,194.3,105.5z"/>
	<path class="st1" d="M252.1,142.2l-2.1-9.9h-15.8l-2.2,9.9h-17.7l17-66.1h21.9l17,66.1H252.1z M237,119.6h10.3l-5-23.8L237,119.6z"
		/>
	<path class="st1" d="M318.6,100.9h-18V90.3c0-1.5-0.9-2.3-2.6-2.3h-3.6c-1.7,0-2.6,0.8-2.6,2.3v37.9c0,1.5,0.9,2.3,2.6,2.3h3.6
		c1.7,0,2.6-0.8,2.6-2.3V118h18v11.5c0,8.5-5,12.8-15.1,12.8h-14.5c-10.1,0-15.1-4.3-15.1-12.8V89c0-8.5,5-12.8,15.1-12.8h14.5
		c10.1,0,15.1,4.3,15.1,12.8V100.9z"/>
	<path class="st1" d="M325.3,142.2V76.2h18v66.1L325.3,142.2L325.3,142.2z M362.1,108.5l13,33.7h-19.3l-12.4-33.7l12.2-32.3H375
		L362.1,108.5z"/>
</g>
</svg>
