<?xml version="1.0" encoding="utf-8"?>
<!-- Generator: Adobe Illustrator 26.2.1, SVG Export Plug-In . SVG Version: 6.00 Build 0)  -->
<svg version="1.1" id="Layer_1" xmlns="http://www.w3.org/2000/svg" xmlns:xlink="http://www.w3.org/1999/xlink" x="0px" y="0px"
	 viewBox="0 0 549 149" style="enable-background:new 0 0 549 149;" xml:space="preserve">
<style type="text/css">
	.st0{fill:#231F20;}
	.st1{fill:#F05B27;}
</style>
<g>
	<path class="st0" d="M122.64,62.46c6.07-1.12,10.99-4.3,15.74-9.31c0.11,1.67,0.24,2.69,0.24,3.7c0.01,21.3,0.03,42.6-0.01,63.91
		c-0.01,6.4-2.24,11.87-7.65,16.09c0-3.87,0.07-7.74-0.02-11.61c-0.12-4.92,0.14-9.92-0.67-14.74
		c-1.83-10.92-11.7-19.14-22.78-19.24c-14.24-0.14-28.48-0.16-42.72,0c-12.94,0.15-23.17,10.8-23.48,24.23
		c-0.15,6.39-0.03,12.78-0.03,19.17c0,1.22,0,2.43,0,4.38c-5.31-3.51-7.7-8.09-8.95-13.37c-0.41-1.72-0.5-3.56-0.5-5.34
		c-0.03-21.3-0.02-42.6-0.02-63.91c0-0.76,0.1-1.53,0.22-3.29c6.32,6.77,13.43,10.07,22.47,9.85"/>
	<path class="st0" d="M85.07,143.54c-9.52,0-19.04,0-28.57,0c-1.12,0-2.24,0.02-3.36-0.03c-6.05-0.27-6.32-0.55-6.32-6.56
		c0-7.06-0.04-14.11,0.01-21.17c0.08-11.08,8.01-19.07,19.09-19.14c13.44-0.07,26.89-0.07,40.33,0c11.1,0.06,19.1,7.99,19.23,19.04
		c0.09,7.62-0.06,15.24,0.07,22.85c0.04,2.3-0.64,3.68-2.96,4.02c-2.42,0.36-4.85,0.92-7.28,0.94
		C105.23,143.6,95.15,143.54,85.07,143.54z"/>
	<path class="st0" d="M143.94,97.81c0-8.95-0.03-17.91,0.03-26.86c0.01-1.04,0.48-2.08,0.73-3.12c1.12,0.32,2.39,0.39,3.33,0.99
		c5.46,3.45,9.33,8.3,10.15,14.73c1.4,10.98,2.45,22.02,3.21,33.06c0.46,6.75-4.49,12.35-11.07,13.58
		c-4.51,0.84-6.35-0.61-6.38-5.17C143.91,115.94,143.94,106.88,143.94,97.81z"/>
	<path class="st0" d="M26.39,98.36c0,8.84,0.02,17.68-0.01,26.52c-0.01,4.78-1.81,6.2-6.52,5.26c-6.65-1.33-11.43-7.24-10.9-14.1
		c0.83-10.59,1.74-21.19,3.06-31.73c0.87-6.92,4.79-12.19,10.79-15.81c2.77-1.67,3.54-1.25,3.56,1.99
		C26.42,79.79,26.39,89.07,26.39,98.36z"/>
	<path class="st0" d="M132.65,29.01c-3.25,0-6.03-2-7.18-4.84c-0.93,0.4-1.96,0.62-3.04,0.62c-4.28,0-7.74-3.47-7.74-7.74
		c0-1.31,0.33-2.55,0.91-3.64c-3.53-0.72-6.18-3.84-6.18-7.59c0-0.39,0.04-0.78,0.1-1.15c-0.76-0.1-1.6-0.19-2.56-0.27L63.45,4.82
		c-1.32,0.14-2.31,0.23-3.31,0.35C46.7,6.78,36.42,15.6,32.79,28.61c-3.6,12.9,2.69,24.99,14.71,28.28l71.83,0.61
		c8.53-0.55,16.38-7.1,18.55-15.66c1.2-4.72,0.92-9.71-0.55-14.43C136.03,28.41,134.42,29.01,132.65,29.01z"/>
</g>
<g>
	<path class="st1" d="M201.24,56.28v-8.77c0-1.41-0.8-2.12-2.41-2.12h-9.26c-4.76,0-8.12-1.04-10.08-3.13
		c-1.96-2.09-2.94-5.1-2.94-9.02V20.51c0-7.97,4.69-11.96,14.08-11.96h13.21c9.39,0,14.08,3.99,14.08,11.96v7.42h-16.87v-5.21
		c0-1.41-0.8-2.12-2.41-2.12h-2.8c-1.6,0-2.41,0.71-2.41,2.12v9.16c0,1.41,0.8,2.12,2.41,2.12h9.07c4.76,0,8.15,1,10.17,2.99
		c2.02,1.99,3.04,4.92,3.04,8.78V58.5c0,7.97-4.7,11.96-14.08,11.96h-13.11c-9.45,0-14.18-3.99-14.18-11.96v-7.43h16.88v5.21
		c0,1.42,0.8,2.12,2.41,2.12h2.79C200.44,58.4,201.24,57.7,201.24,56.28z"/>
	<path class="st1" d="M250.61,8.55h16.88V58.5c0,7.97-4.73,11.96-14.18,11.96h-14.27c-9.45,0-14.18-3.99-14.18-11.96V8.55h16.88
		v47.73c0,1.42,0.8,2.12,2.41,2.12h4.05c1.61,0,2.41-0.71,2.41-2.12V8.55z"/>
	<path class="st1" d="M292.08,48.47v21.98H275.2V8.55h28.64c9.45,0,14.18,3.99,14.18,11.96v16c0,6.11-2.77,9.87-8.29,11.28
		l11.38,22.66h-18.13l-9.84-21.98H292.08z M298.73,20.6h-6.65V37h6.65c1.6,0,2.41-0.71,2.41-2.12V22.73
		C301.14,21.31,300.34,20.6,298.73,20.6z"/>
	<path class="st1" d="M354.08,8.55h17.55l-15.24,61.91h-19.58L321.58,8.55h17.55l7.42,41.37L354.08,8.55z"/>
	<path class="st1" d="M376.16,8.55h16.88v61.91h-16.88V8.55z"/>
	<path class="st1" d="M430.06,8.55h17.55l-15.24,61.91H412.8L397.57,8.55h17.55l7.42,41.37L430.06,8.55z"/>
	<path class="st1" d="M483.68,70.46l-1.93-9.26H466.9l-2.02,9.26h-16.59L464.2,8.55h20.54l15.91,61.91H483.68z M469.5,49.24h9.64
		l-4.72-22.27L469.5,49.24z"/>
	<path class="st1" d="M521.38,58.4h19.19v12.05h-36.06V8.55h16.88V58.4z"/>
</g>
<g>
	<path class="st1" d="M176.12,78.4h29.05c9.59,0,14.38,4.04,14.38,12.13v18c0,8.08-4.79,12.13-14.38,12.13h-11.93v20.54h-17.12V78.4
		z M202.43,106.27v-13.5c0-1.43-0.82-2.15-2.44-2.15h-6.75v17.8h6.75C201.61,108.43,202.43,107.71,202.43,106.27z"/>
	<path class="st1" d="M257.4,141.19l-1.95-9.39h-15.06l-2.05,9.39H221.5l16.14-62.8h20.83l16.14,62.8H257.4z M243.02,119.67h9.78
		l-4.79-22.59L243.02,119.67z"/>
	<path class="st1" d="M320.59,101.87h-17.12V91.8c0-1.43-0.82-2.15-2.44-2.15h-3.43c-1.63,0-2.44,0.72-2.44,2.15v35.99
		c0,1.44,0.82,2.15,2.44,2.15h3.43c1.63,0,2.44-0.72,2.44-2.15v-9.68h17.12v10.96c0,8.08-4.8,12.13-14.38,12.13h-13.79
		c-9.59,0-14.38-4.04-14.38-12.13V90.53c0-8.09,4.79-12.13,14.38-12.13h13.79c9.58,0,14.38,4.04,14.38,12.13V101.87z"/>
	<path class="st1" d="M326.94,141.19V78.4h17.12v62.8H326.94z M361.96,109.11l12.33,32.08H355.9l-11.74-32.08L355.8,78.4h18.39
		L361.96,109.11z"/>
</g>
</svg>
