<?xml version="1.0" encoding="utf-8"?>
<!-- Generator: Adobe Illustrator 26.2.1, SVG Export Plug-In . SVG Version: 6.00 Build 0)  -->
<svg version="1.1" id="Layer_1" xmlns="http://www.w3.org/2000/svg" xmlns:xlink="http://www.w3.org/1999/xlink" x="0px" y="0px"
	 viewBox="0 0 345 345" style="enable-background:new 0 0 345 345;" xml:space="preserve">
<style type="text/css">
	.st0{fill:#FFFFFF;}
</style>
<circle cx="173" cy="173.5" r="165.84"/>
<path class="st0" d="M261.79,149.38c0-21.99-17.83-39.82-39.82-39.82H120.13c-21.99,0-39.82,17.83-39.82,39.82v47.39
	c0,21.99,17.83,39.82,39.82,39.82h101.83c21.99,0,39.82-17.83,39.82-39.82V149.38z M201.9,176.63l-45.67,22.59
	c-1.79,0.97-7.87-0.33-7.87-2.36v-46.37c0-2.06,6.13-3.36,7.92-2.34L200,171.93C201.83,172.97,203.76,175.63,201.9,176.63z"/>
</svg>
