<?xml version="1.0" encoding="utf-8"?>
<!-- Generator: Adobe Illustrator 26.3.1, SVG Export Plug-In . SVG Version: 6.00 Build 0)  -->
<svg version="1.1" id="Layer_1" xmlns="http://www.w3.org/2000/svg" xmlns:xlink="http://www.w3.org/1999/xlink" x="0px" y="0px"
	 viewBox="0 0 559 204" style="enable-background:new 0 0 559 204;" xml:space="preserve">
<style type="text/css">
	.st0{fill:#010101;}
	.st1{fill:#FFFFFF;}
	.st2{fill:#F05B27;}
</style>
<path class="st0" d="M551.7,85.6c-10.8,0-20.2-6-25.1-14.9c-3.4,1.4-7,2.2-10.9,2.2c-15.8,0-28.5-12.8-28.5-28.5
	c0-5.3,1.5-10.2,3.9-14.4c-11.4-2.3-20.4-11.4-22.4-22.9H48C24.8,7,6,25.8,6,49v107c0,23.2,18.8,42,42,42H512c23.2,0,42-18.8,42-42
	V85.5C553.2,85.6,552.5,85.6,551.7,85.6z"/>
<g>
	<path class="st1" d="M30.2,42.9h16.5c5,0,7.5,2.3,7.5,6.8V59c0,2.9-1,4.7-2.9,5.3c1.9,0.6,2.9,2.3,2.9,5v10.2
		c0,4.6-2.5,6.8-7.5,6.8H30.2V42.9z M46.4,59.6v-9.1c0-0.7-0.1-1.2-0.4-1.5c-0.3-0.2-0.8-0.4-1.6-0.4h-6.3v12.8h6.3
		c0.8,0,1.3-0.1,1.6-0.4S46.4,60.3,46.4,59.6z M46.4,78.7v-9.6c0-0.7-0.1-1.2-0.4-1.5c-0.3-0.2-0.8-0.4-1.6-0.4h-6.3v13.3h6.3
		c0.8,0,1.3-0.1,1.6-0.4S46.4,79.4,46.4,78.7z"/>
	<path class="st1" d="M60.9,42.9h7.9v43.5h-7.9C60.9,86.3,60.9,42.9,60.9,42.9z"/>
	<path class="st1" d="M98.6,56.2h-8v-5.7c0-0.7-0.1-1.2-0.4-1.5c-0.3-0.2-0.8-0.4-1.5-0.4h-3.2c-0.7,0-1.2,0.1-1.5,0.4
		s-0.4,0.8-0.4,1.5v28.2c0,0.7,0.1,1.2,0.4,1.5c0.3,0.2,0.8,0.4,1.5,0.4h3.2c0.7,0,1.2-0.1,1.5-0.4s0.4-0.8,0.4-1.5v-9.6h-3.4v-5.6
		h11.4v16c0,4.6-2.5,6.8-7.5,6.8h-8.1c-5,0-7.5-2.3-7.5-6.8V49.7c0-4.5,2.5-6.8,7.5-6.8h8.1c5,0,7.5,2.3,7.5,6.8V56.2z"/>
	<path class="st1" d="M115.6,42.9h16.5c5,0,7.5,2.3,7.5,6.8V59c0,2.9-1,4.7-2.9,5.3c1.9,0.6,2.9,2.3,2.9,5v10.2
		c0,4.6-2.5,6.8-7.5,6.8h-16.5C115.6,86.3,115.6,42.9,115.6,42.9z M131.8,59.6v-9.1c0-0.7-0.1-1.2-0.4-1.5c-0.3-0.2-0.8-0.4-1.6-0.4
		h-6.3v12.8h6.3c0.8,0,1.3-0.1,1.6-0.4C131.7,60.8,131.8,60.3,131.8,59.6z M131.8,78.7v-9.6c0-0.7-0.1-1.2-0.4-1.5
		c-0.3-0.2-0.8-0.4-1.6-0.4h-6.3v13.3h6.3c0.8,0,1.3-0.1,1.6-0.4C131.7,79.9,131.8,79.4,131.8,78.7z"/>
	<path class="st1" d="M146.4,42.9h7.9v43.5h-7.9V42.9z"/>
	<path class="st1" d="M181.5,42.9v6.1h-7.6v37.4h-7.9V48.9h-7.6v-6.1C158.3,42.9,181.5,42.9,181.5,42.9z"/>
	<path class="st1" d="M193.1,80.3h13.2v6.1h-21.2V42.9h20.7v6.1h-12.7v12h10.7v6.1h-10.7L193.1,80.3L193.1,80.3z"/>
	<path class="st1" d="M244.7,56.2h-8v-5.7c0-0.7-0.1-1.2-0.4-1.5c-0.3-0.2-0.8-0.4-1.5-0.4h-3.2c-0.7,0-1.2,0.1-1.5,0.4
		s-0.4,0.8-0.4,1.5v28.2c0,0.7,0.1,1.2,0.4,1.5c0.3,0.2,0.8,0.4,1.5,0.4h3.2c0.7,0,1.2-0.1,1.5-0.4s0.4-0.8,0.4-1.5v-9.6h-3.4v-5.6
		h11.4v16c0,4.6-2.5,6.8-7.5,6.8h-8.1c-5,0-7.5-2.3-7.5-6.8V49.7c0-4.5,2.5-6.8,7.5-6.8h8.1c5,0,7.5,2.3,7.5,6.8L244.7,56.2
		L244.7,56.2z"/>
	<path class="st1" d="M266.1,42.9h7.9v36.6c0,4.6-2.5,6.8-7.5,6.8h-8.4c-5,0-7.5-2.3-7.5-6.8V42.9h7.9v35.5c0,0.7,0.1,1.2,0.4,1.5
		c0.3,0.2,0.8,0.4,1.5,0.4h3.6c0.8,0,1.3-0.1,1.6-0.4c0.3-0.2,0.4-0.8,0.4-1.5L266.1,42.9L266.1,42.9z"/>
	<path class="st1" d="M298.4,86.3l-1.6-9h-9.5l-1.5,9h-7.9l8.8-43.5h10.7l9.2,43.5C306.4,86.3,298.4,86.3,298.4,86.3z M288.2,71.3
		h7.4l-3.8-20.8L288.2,71.3z"/>
	<path class="st1" d="M318.1,69.4v16.9h-7.9V42.9h16c5,0,7.5,2.3,7.5,6.8v12.9c0,3.8-1.7,6-5,6.6l7.2,17.2h-8.5l-6.6-16.9H318.1z
		 M318.1,48.9v14.6h5.7c0.7,0,1.2-0.1,1.5-0.4s0.4-0.8,0.4-1.5V50.8c0-0.7-0.1-1.2-0.4-1.5c-0.3-0.2-0.8-0.4-1.5-0.4H318.1z"/>
	<path class="st1" d="M357.7,86.3l-1.6-9h-9.5l-1.5,9h-7.9l8.8-43.5h10.7l9.2,43.5H357.7z M347.5,71.3h7.4l-3.8-20.8L347.5,71.3z"/>
	<path class="st1" d="M386.3,42.9h7.2v43.5h-7.4l-9.3-28.8v28.8h-7.3V42.9h7.6l9.2,28.4L386.3,42.9L386.3,42.9z"/>
	<path class="st1" d="M420.4,42.9v6.1h-7.6v37.4h-7.9V48.9h-7.6v-6.1C397.3,42.9,420.4,42.9,420.4,42.9z"/>
	<path class="st1" d="M432.1,80.3h13.2v6.1h-21.2V42.9h20.7v6.1h-12.7v12h10.7v6.1h-10.7L432.1,80.3L432.1,80.3z"/>
	<path class="st1" d="M457.8,80.3h13.2v6.1h-21.2V42.9h20.7v6.1h-12.7v12h10.7v6.1h-10.7L457.8,80.3L457.8,80.3z"/>
</g>
<rect x="29.8" y="105.4" class="st2" width="494" height="9.4"/>
<g>
	<path class="st1" d="M60.2,170l-1.5-8.7h-7.9l-1.4,8.7H44l6.7-37.6h7.9l7.1,37.6H60.2z M51.5,156.9H58l-3.4-19.8L51.5,156.9z"/>
	<path class="st1" d="M82.9,132.4h5V170h-5.5l-7.9-27.1V170h-5v-37.6h5.7l7.7,26.3V132.4z"/>
	<path class="st1" d="M104.7,170h-5.5v-11.9l-8-25.7h5.5l5.2,20.7l4.9-20.7h5.5l-7.7,25.7C104.7,158.1,104.7,170,104.7,170z"/>
	<path class="st1" d="M129.9,154.8V170h-5.4v-37.6h12.3c3.7,0,5.6,1.8,5.6,5.3v11.8c0,3-1.3,4.8-4,5.2l5.9,15.3h-5.8l-5.6-15.2
		L129.9,154.8L129.9,154.8z M129.9,136.8v13.7h5.3c0.7,0,1.2-0.1,1.4-0.3s0.4-0.7,0.4-1.4v-10.2c0-0.7-0.1-1.2-0.4-1.4
		s-0.7-0.3-1.4-0.3H129.9z"/>
	<path class="st1" d="M153.7,165.6h10.9v4.4h-16.3v-37.6h15.9v4.4h-10.4v11.6h8.6v4.4h-8.6L153.7,165.6L153.7,165.6z"/>
	<path class="st1" d="M182.6,170l-1.5-8.7h-7.9l-1.4,8.7h-5.4l6.7-37.6h7.9L188,170H182.6z M173.8,156.9h6.5l-3.4-19.8L173.8,156.9z
		"/>
	<path class="st1" d="M202.7,163.8v-9.2c0-0.7-0.1-1.2-0.3-1.4s-0.7-0.3-1.4-0.3h-4.4c-3.6,0-5.5-1.8-5.5-5.3v-9.9
		c0-3.5,1.9-5.3,5.6-5.3h5.9c3.7,0,5.6,1.8,5.6,5.3v5.5h-5.5v-4.7c0-0.7-0.1-1.2-0.4-1.4s-0.7-0.3-1.4-0.3h-2.5
		c-0.7,0-1.2,0.1-1.4,0.3s-0.4,0.7-0.4,1.4v8.3c0,0.7,0.1,1.2,0.4,1.4s0.7,0.3,1.4,0.3h4.4c3.7,0,5.5,1.8,5.5,5.3v10.8
		c0,3.5-1.9,5.3-5.6,5.3h-5.8c-3.7,0-5.6-1.8-5.6-5.3v-5.5h5.5v4.7c0,0.7,0.1,1.2,0.4,1.4s0.7,0.3,1.4,0.3h2.5
		c0.7,0,1.2-0.1,1.4-0.3C202.6,165,202.7,164.6,202.7,163.8z"/>
	<path class="st1" d="M218.9,132.4h6.7c3.7,0,5.6,1.8,5.6,5.3v27c0,3.5-1.9,5.3-5.6,5.3h-6.7c-3.8,0-5.6-1.8-5.6-5.3v-27
		C213.2,134.2,215.1,132.4,218.9,132.4z M225.7,163.8v-25.3c0-0.7-0.1-1.2-0.4-1.4s-0.7-0.3-1.4-0.3h-3.5c-0.7,0-1.2,0.1-1.4,0.3
		s-0.3,0.7-0.3,1.4v25.3c0,0.7,0.1,1.2,0.3,1.4s0.7,0.3,1.4,0.3h3.5c0.7,0,1.2-0.1,1.4-0.3S225.7,164.6,225.7,163.8z"/>
	<path class="st1" d="M250.5,132.4h5V170H250l-7.9-27.1V170h-5v-37.6h5.7l7.7,26.3L250.5,132.4L250.5,132.4z"/>
	<path class="st1" d="M260.5,162.6h6.1v3.9l-4.1,11.9h-1.9L260.5,162.6L260.5,162.6z"/>
	<path class="st1" d="M294.1,170l-1.5-8.7h-7.9l-1.4,8.7h-5.4l6.7-37.6h7.9l7.1,37.6H294.1z M285.4,156.9h6.5l-3.4-19.8L285.4,156.9
		z"/>
	<path class="st1" d="M316.8,132.4h5V170h-5.5l-7.9-27.1V170h-5v-37.6h5.7l7.7,26.3V132.4z"/>
	<path class="st1" d="M338.6,170h-5.5v-11.9l-8-25.7h5.5l5.2,20.7l4.9-20.7h5.5l-7.7,25.7V170z"/>
	<path class="st1" d="M358.4,132.4h12.3c3.7,0,5.6,1.8,5.6,5.3v12.5c0,3.5-1.9,5.3-5.6,5.3h-6.9V170h-5.4V132.4z M370.8,149.3v-10.8
		c0-0.7-0.1-1.2-0.4-1.4s-0.7-0.3-1.4-0.3h-5.3v14.3h5.3c0.7,0,1.2-0.1,1.4-0.4C370.7,150.5,370.8,150,370.8,149.3z"/>
	<path class="st1" d="M386.4,154.8V170H381v-37.6h12.3c3.7,0,5.6,1.8,5.6,5.3v11.8c0,3-1.3,4.8-4,5.2l5.9,15.3H395l-5.6-15.2
		L386.4,154.8L386.4,154.8z M386.4,136.8v13.7h5.3c0.7,0,1.2-0.1,1.4-0.3s0.4-0.7,0.4-1.4v-10.2c0-0.7-0.1-1.2-0.4-1.4
		s-0.7-0.3-1.4-0.3H386.4z"/>
	<path class="st1" d="M410.1,132.4h6.7c3.7,0,5.6,1.8,5.6,5.3v27c0,3.5-1.9,5.3-5.6,5.3h-6.7c-3.8,0-5.6-1.8-5.6-5.3v-27
		C404.5,134.2,406.4,132.4,410.1,132.4z M417,163.8v-25.3c0-0.7-0.1-1.2-0.4-1.4s-0.7-0.3-1.4-0.3h-3.5c-0.7,0-1.2,0.1-1.4,0.3
		s-0.3,0.7-0.3,1.4v25.3c0,0.7,0.1,1.2,0.3,1.4s0.7,0.3,1.4,0.3h3.5c0.7,0,1.2-0.1,1.4-0.3S417,164.6,417,163.8z"/>
	<path class="st1" d="M428.5,132.4h13.1c3.7,0,5.6,1.8,5.6,5.3v27c0,3.5-1.9,5.3-5.6,5.3h-13.1V132.4z M441.7,164v-25.6
		c0-0.7-0.1-1.2-0.4-1.4s-0.7-0.3-1.4-0.3h-5.9v29h5.9c0.7,0,1.2-0.1,1.4-0.3C441.6,165.1,441.7,164.7,441.7,164z"/>
	<path class="st1" d="M465.4,132.4h5.5v32.3c0,3.5-1.9,5.3-5.6,5.3h-6.7c-3.8,0-5.6-1.8-5.6-5.3v-32.3h5.5v31.4
		c0,0.7,0.1,1.2,0.4,1.4s0.7,0.3,1.4,0.3h3.4c0.8,0,1.2-0.1,1.5-0.3s0.3-0.7,0.3-1.4L465.4,132.4L465.4,132.4z"/>
	<path class="st1" d="M494.2,144.2h-5.5v-5.8c0-0.7-0.1-1.2-0.3-1.4s-0.7-0.3-1.4-0.3h-3.1c-0.7,0-1.2,0.1-1.4,0.3s-0.4,0.7-0.4,1.4
		V164c0,0.7,0.1,1.2,0.4,1.4s0.7,0.3,1.4,0.3h3.1c0.7,0,1.2-0.1,1.4-0.3s0.3-0.7,0.3-1.4v-5.7h5.5v6.4c0,3.6-1.9,5.3-5.6,5.3h-6.4
		c-3.7,0-5.6-1.8-5.6-5.3v-27c0-3.5,1.9-5.3,5.6-5.3h6.4c3.8,0,5.6,1.8,5.6,5.3V144.2z"/>
	<path class="st1" d="M514.7,132.4v4.4h-6.3V170H503v-33.2h-6.3v-4.4H514.7z"/>
</g>
</svg>
