<?xml version="1.0" encoding="utf-8"?>
<!-- Generator: Adobe Illustrator 26.2.1, SVG Export Plug-In . SVG Version: 6.00 Build 0)  -->
<svg version="1.1" id="Layer_1" xmlns="http://www.w3.org/2000/svg" xmlns:xlink="http://www.w3.org/1999/xlink" x="0px" y="0px"
	 viewBox="0 0 429 401" style="enable-background:new 0 0 429 401;" xml:space="preserve">
<style type="text/css">
	.st0{fill:#FFFFFF;}
</style>
<path class="st0" d="M286.21,83.51c37.34,0,74.68,0,112.02,0c1.5,0,3-0.04,4.5,0.02c8.45,0.34,11.35,4.23,9.02,12.41
	c-3.83,13.42-7.79,26.81-11.7,40.2c-6.61,22.65-13.2,45.31-19.84,67.95c-2.63,8.98-7.81,12.88-17.12,12.88
	c-50.34,0.02-100.69,0.02-151.03,0c-9.14,0-14.05-3.56-17.07-12.36c-11.97-34.89-23.92-69.79-35.83-104.7
	c-3.83-11.21-0.06-16.38,12.02-16.39C209.53,83.49,247.87,83.51,286.21,83.51z"/>
<path class="st0" d="M266.04,292.95c-38.18,0-76.35-0.07-114.53,0.11c-4.2,0.02-5.96-1.25-7.33-5.21
	c-26.27-76.01-52.73-151.96-79-227.98c-1.32-3.81-2.92-5.15-6.99-5.02c-10.16,0.33-20.34,0.18-30.5,0.09
	c-11.36-0.1-20.13-8.69-20.31-19.72c-0.18-11.05,8.89-20.18,20.37-20.24c19.67-0.09,39.34,0.1,59.01-0.14c4-0.05,5.76,1.12,7.07,4.9
	c25.3,73.2,50.73,146.36,76.17,219.51c1.57,4.52,2.25,10.52,5.5,12.94c3.04,2.26,8.95,0.78,13.6,0.78
	c63.85,0.02,127.7-0.01,191.55,0.04c14.8,0.01,24.55,13.74,19.42,27.12c-3.04,7.92-10.2,12.81-19,12.82
	C342.73,292.97,304.39,292.95,266.04,292.95z"/>
<path class="st0" d="M374.17,343.78c-0.06,19.72-15.9,35.29-35.75,35.15c-19.2-0.13-35.23-16.43-35.03-35.6
	c0.2-19.3,16.22-35.21,35.48-35.24C358.5,308.07,374.24,323.98,374.17,343.78z"/>
<path class="st0" d="M189.62,307.84c19.47,0.1,35.27,15.87,35.28,35.24c0.01,19.44-16.37,35.73-35.71,35.5
	c-19.64-0.23-35.22-16.18-35.12-35.93C154.17,323.25,170.01,307.74,189.62,307.84z"/>
</svg>
