<?xml version="1.0" encoding="utf-8"?>
<!-- Generator: Adobe Illustrator 26.2.1, SVG Export Plug-In . SVG Version: 6.00 Build 0)  -->
<svg version="1.1" id="Layer_1" xmlns="http://www.w3.org/2000/svg" xmlns:xlink="http://www.w3.org/1999/xlink" x="0px" y="0px"
	 viewBox="0 0 200 155" style="enable-background:new 0 0 200 155;" xml:space="preserve">
<style type="text/css">
	.st0{fill:#FFFFFF;}
</style>
<g>
	<path class="st0" d="M176.4,5c9.7,0,17.6,7.9,17.6,17.6c0,5.5-2.6,10.8-7.1,14.1l-79.9,59.9c-4.2,3.1-9.9,3.1-14.1,0L13.1,36.7
		C8.6,33.4,6,28.2,6,22.6C6,12.9,13.9,5,23.6,5H176.4z M85.9,106.1c8.4,6.3,19.8,6.3,28.2,0L194,46.1v76.4c0,13-10.5,23.5-23.5,23.5
		h-141C16.5,146,6,135.5,6,122.5V46.1L85.9,106.1z"/>
</g>
</svg>
