<?xml version="1.0" encoding="utf-8"?>
<!-- Generator: Adobe Illustrator 26.3.1, SVG Export Plug-In . SVG Version: 6.00 Build 0)  -->
<svg version="1.1" id="Layer_1" xmlns="http://www.w3.org/2000/svg" xmlns:xlink="http://www.w3.org/1999/xlink" x="0px" y="0px"
	 viewBox="0 0 236.6 156.7" style="enable-background:new 0 0 236.6 156.7;" xml:space="preserve">
<style type="text/css">
	.st0{fill:#FFFFFF;}
</style>
<path class="st0" d="M218.6,156.7H18.9C8.5,156.7,0,148.2,0,137.8v0c0-10.4,8.5-18.9,18.9-18.9h199.7c10.4,0,18.9,8.5,18.9,18.9v0
	C237.5,148.2,229.1,156.7,218.6,156.7z"/>
<path class="st0" d="M218.6,97.3H18.9C8.5,97.3,0,88.8,0,78.3v0c0-10.4,8.5-18.9,18.9-18.9h199.7c10.4,0,18.9,8.5,18.9,18.9v0
	C237.5,88.8,229.1,97.3,218.6,97.3z"/>
<path class="st0" d="M218.6,37.8H18.9C8.5,37.8,0,29.4,0,18.9v0C0,8.5,8.5,0,18.9,0l199.7,0c10.4,0,18.9,8.5,18.9,18.9v0
	C237.5,29.4,229.1,37.8,218.6,37.8z"/>
</svg>
