<?xml version="1.0" encoding="utf-8"?>
<!-- Generator: Adobe Illustrator 26.2.1, SVG Export Plug-In . SVG Version: 6.00 Build 0)  -->
<svg version="1.1" id="Layer_1" xmlns="http://www.w3.org/2000/svg" xmlns:xlink="http://www.w3.org/1999/xlink" x="0px" y="0px"
	 viewBox="0 0 1200 185" style="enable-background:new 0 0 1200 185;" xml:space="preserve">
<style type="text/css">
	.st0{fill:#FFFFFF;}
</style>
<g>
	<g>
		<path d="M200.1,133.5c-0.8-1.7-1.1-4.3-0.3-5.9c11.8-24,23.8-47.8,35.8-71.7c0.5-0.9,1.1-1.8,2.2-3.6c2,3.6,3.7,6.6,5.2,9.6
			c1.8,3.4,3.2,7.1,5.2,10.4c1.4,2.4,2.5,4.9,3.4,7.4c2.1,2.6,25.2,49.7,33.3,65.9c1.3-1.8,2.9-3.2,4.7-4.3c-0.4-1-0.5-2.3-0.1-3.1
			c4.9-10.9,10.3-21.4,16.2-33c9.9,19.8,19.6,39,29.5,58.8c1.1,0.2,2.1,0.6,3.1,1.1c1-0.9,1.1-2.6,2.3-3.1
			c-12-23.8-22.9-46.5-34.8-70.4c-6.9,13.6-13.5,26.7-20.6,40.9c-16.2-32.2-31.7-63-47.5-94.5c-14.4,28.6-28.3,56.3-42.8,85.2
			c-7.2-14.2-14-27.6-21.1-41.7c-10.5,21-20.9,41.7-31.3,62.4c0.6-0.1,6.6-2.5,8.2-3.1c0.1-0.2,0.2-0.4,0.3-0.6
			c1.6-3.4,3.8-4.7,7.8-5.2c9.3-1.1,16.3,3.1,23.3,8.2c5,3.6,10.1,7,15.4,10.3c2.5,1.5,4.7,3.1,6.7,5c1.7-1.8,3.9-3.2,6.3-4
			 M197.8,146.2c-6.5-4.3-13.3-8.4-19.5-13.1c-4.7-3.5-9.5-4.7-15.2-4.3c-1.8,0.1-3.6-0.2-6.3-0.4c5.6-11.2,10.9-21.7,16.8-33.5
			c8.9,17.8,17.1,34.1,25.3,50.4C198.6,145.6,198.2,146,197.8,146.2z"/>
	</g>
	<g>
		<path d="M657.2,91.5c-6.2,12.2-12.3,24.1-18.9,37C622,96.1,606.4,64.9,590.4,33c-16,31.9-31.8,63.2-48,95.6
			c-6.4-12.6-12.3-24.4-18.8-37.1c-8.6,17.1-17,33.8-25.4,50.5c0.1,0.1,0.3,0.2,0.4,0.3c1.5,1.3,2.9,2.6,4.4,3.9
			c0.2-0.3,14.9-29.8,20.5-41c9.4,18.8,18.6,36.9,27.7,55.2c1.6-1.7,3.6-3,5.7-3.9c0.1-1.2,0.8-2.3,2-3.7
			c10.4-10.6,20.5-21.5,31.2-32.9c15.4,16.1,30.5,31.9,46.1,48.2c2.5-0.3,4.6-1,6.6-2.1c6.7-6.9,38-31.8,38.4-31.7
			C674.2,120.3,664.3,105.7,657.2,91.5z M664.1,135.5c-7.7,7.7-15.3,15.3-23.1,22.9c-0.8,1-1.8,1.5-2.9,2.4
			c-15.9-16.6-31.6-33.1-47.7-49.9c-12.3,12.9-24.5,25.7-37.2,39c-2.5-4.9-4.8-9.2-6.9-13.6c-0.3-0.7,0.2-2.1,0.7-3
			c13.9-27.8,27.8-55.6,41.7-83.5c0.3-0.7,0.9-1.2,2-2.5c15.9,31.7,31.6,62.9,47.7,94.8c6.3-12.4,12.2-24,18.7-36.9
			c3.4,6.5,6.5,12.1,9.3,17.8C669.8,130,669.7,130,664.1,135.5z"/>
	</g>
	<g>
		<path d="M472.9,109c2.4,2.7,4.1,3.1,6.7,0.4c2.7-2,5.1-4.4,8.4-7.1c6.1,12.2,11.9,23.8,18,36c1.3-1.7,1.8-5,3.6-6
			C491.9,97.2,475.8,64.5,458,29c-12.2,24.2-23.9,47.5-36.1,71.7c-5.3-10.4-9.9-19.6-15-29.7c-10.2,20.2-19.8,39.4-30,59.6
			c-4.7-9.2-8.9-17.4-13.4-26.3c-10.1,20.1-19.9,35.7-29.8,55.4c1.5,0.1,3.4,4.8,4.8,5.5c0.9-0.8,1.4-2.1,2.1-3.3
			c7.4-14.8,15.1-28.4,22.8-43.8c2.8,5.4,8.6,16.7,10,20.6c1.4-0.4,1.7-0.5,3.4-0.5c1,0,2,0.1,3.1,0.4c4.3-8.7,8.7-17.3,13.1-26.1
			c1.2,1.3,1.9,1.8,2.3,2.6c7.6,15.1,15,30.2,22.6,45.3c1.1,2.2,2.9,4.1,4.8,6.7c12.1-24.3,23.9-47.9,36.1-72.3
			C463.9,99.9,468.6,104.3,472.9,109z M422,154.4c-7.2-14.2-13.3-27.5-20.5-40c-4.1-7.1-4.2-12.9,0.2-19.4c1.9-2.7,3.2-5.9,5.3-9.9
			c5.1,10.1,9.9,19.4,15,29.6c12-23.9,23.8-47.2,36-71.5c3.6,7.1,6.9,13.1,9.9,19.2c5.2,10.5,10.2,21.1,15.6,31.5
			c2.9,5.6-0.2,5.6-3.8,8.7c-4.1,2.3-4.4,0.3-6-1.5c-5-5.6-10.3-10.9-16.1-17.1C445.6,107.8,434.2,130.4,422,154.4z"/>
	</g>
	<g>
		<path d="M789.4,154c-11.9-20.5-23.3-40.1-35-60.3c-12,6.4-23.8,12.7-35.6,19c-0.4-0.3-0.7-0.6-1.1-0.9
			c11.7-20.3,23.5-40.5,35.6-61.6c12.1,21.1,23.8,41.5,36,62.7c6.1-10.4,11.9-20.2,18.2-30.9c13.3,23,21.5,38.7,34.4,60.9
			c0.5-2.5,2.4-5.3,4-7.2c-14.1-24.3-24.1-41.6-38.3-66.1c-6,10.3-11.9,20.2-18.1,30.9c-12.4-21-24.3-41.4-36.4-61.9
			c-14.9,25.7-29.6,50.9-44.7,76.9c-4.4-8.6-8.3-16.1-12.4-24.2c-7.2,14.4-14.3,28.6-21.4,42.7c0.8-0.1,1.6-0.2,2.5-0.2
			c1.5,0,2.9,0.2,4.2,0.6c4.8-9.6,9.7-19.3,14.6-29.2c2.1,3.9,3.7,7,5.3,10c0.6,1.2,1.2,2.5,1.9,3.7c4.1,7.4,4.1,7.5,11.4,3.5
			c10.9-5.8,21.7-11.8,32.5-17.8c4.6-2.6,5.4-2.3,8,2.2c10.4,18,20.8,36.1,31.6,54.6c1.9,0.1,3.8,0.2,5.6,0.2
			c5.5-9.3,10.7-18.3,16.2-27.6c9,7.7,17.8,15.3,26.7,23c0.8,0.5-0.7-1.9,0-1.3c1.2-1.6,0.6-3.8,2.5-4.7c-11.7-10-19-16.2-30.9-26.5
			C800.8,134.5,795.3,143.8,789.4,154z"/>
		<path class="st0" d="M816,162.1c4.4-8.2,12.7-8.7,19-5.1c-8.9-7.6-17.7-15.2-26.7-23c-5.5,9.3-10.7,18.3-16.2,27.6
			c8.1,0.3,16.1,0.7,23.7,0.8C815.9,162.4,815.9,162.2,816,162.1z"/>
	</g>
	<g>
		<path d="M1176.5,135c5.2,10.4,15.3,30.7,21.1,42.2c2.7,2,4.5,4.9,5.3,8h5.7c-6.4-12.6-17-33.8-24.3-48.3c-0.3-0.8-0.5-1.4-0.7-1.7
			c-3.8-7.5-7.7-15-11.4-22.6c-10.1-20.1-20.1-40.2-30.2-60.2c-3-6-6.1-11.9-9.7-18.9c-19.9,39.6-39.3,78.2-59.1,117.7
			c-11.8-23.5-23-45.8-34.7-69.1c-13.1,26.2-26,51.8-38.8,77.5c2.1,0.1,4.2,0.6,6.1,1.7c3.6-7.1,7.1-14.2,10.7-21.3
			c2.9,2.4,5.6,4,7.7,6.3c2.3,2.5,3.8,1.8,5.7-0.2c2.7-3,5.4-5.9,9.1-9.8c3.4,3.9,6.1,7,8.9,10.2c1.6,1.9,3.1,2.1,5,0.2
			c2.2-2.2,4.7-4,7.9-6.6c3.5,7,7,13.9,10.5,20.8c1.8-0.9,4-1.4,6.6-1.3c-0.3-1.9,0.1-3.8,1.2-5.8c3.6-6.9,6.9-13.8,10.4-20.7
			c2.9-5.7,5.9-11.4,9.2-17.8c4.9,4.1,9.3,7.7,13.6,11.4c2,1.7,3.3,2.2,5.3-0.2c4.5-5.3,9.4-10.4,14.6-16c6,6.1,11,11.1,15.7,16.3
			c1.7,1.9,2.8,1.9,4.6,0.3c3.7-3.3,7.5-6.4,11.3-9.6c1.9-1.6,3.2-1.9,4.5,0.9C1170.6,123.8,1173.5,129.5,1176.5,135L1176.5,135z
			 M1052.4,138.1c-0.7,0.7-3.7,0-4.9-1c-3-2.6-5.6-5.8-9.4-9.8c-3.3,3.8-6.1,7.3-9.3,10.3c-0.9,0.8-3.6,1.2-4.3,0.6
			c-1.8-1.7-4.7-4.9-4.1-6.1c5.4-11.9,11.5-23.4,18-36.4c3.9,7.7,7.2,14,10.4,20.4c2.5,4.9,4.7,10,7.4,14.8
			C1058.8,135.6,1054.3,136.4,1052.4,138.1z M1152.2,118.7c-0.8,0.6-3.2,0-4.2-0.9c-5.3-4.9-10.4-9.9-16.2-15.6
			c-4.9,5.1-9.7,10.4-14.9,15.4c-1,1-3.6,1.7-4.4,1.1c-3.8-2.8-7.3-6.1-11.2-9.5c10.3-20.4,20.3-40.4,31.1-61.9
			c10.7,21.3,20.9,41.4,31.2,61.9C1159.7,112.3,1156.1,115.8,1152.2,118.7z"/>
	</g>
	<g>
		<path d="M1003.7,160.4c-22-43.9-43.9-87.4-65.9-131.2c-15.3,30.5-30.1,59.9-45.5,90.5c-7.8-15.3-14.9-29.4-22.4-44.4
			c-13.5,27-26.8,53.4-40.1,79.9c2,0.4,4,1.1,5.7,2.3c11.2-22.4,22.5-44.8,33.8-67.5c1.2,1.3,2,1.8,2.3,2.5
			c5.2,10.4,10.5,20.7,15.4,31.2c0.1,0.2,0.1,0.4,0.2,0.6c3-0.7,6,0,8.7,1.5c1.4-2.9,2.9-5.8,4.3-8.7c1.6-3.2,2.7-4.6,5.9-1.3
			c3,3.2,6.9,5.7,10.2,8.7c2.3,2.1,4.1,1.9,6.2-0.3c4.8-5.1,9.8-10,15.1-15.4c5.9,6.4,11.5,12.3,17.4,18.6
			c6.2-5.1,11.6-9.5,17.7-14.5c7.9,15.8,15.7,31.3,23.6,47C999,159.4,1001.4,159.5,1003.7,160.4z M966.8,109.8
			c-1.5,1.1-2.9,2.3-4.3,3.5c-6.2,5.1-6.2,5.1-12.1-0.8c-4.1-4.2-8.2-8.3-12.8-13c-6.1,6.4-11.9,12.6-18,19.1
			c-4.5-3.8-8.6-7-12.4-10.5c-0.7-0.6-0.7-2.6-0.3-3.5c7.6-15.5,15.4-30.9,23.1-46.3c2.4-4.8,4.9-9.4,7.8-15.1
			c2.4,4.7,4.5,8.5,6.5,12.5c7.9,15.9,15.7,31.9,23.9,47.7C969.9,106.5,969.1,108,966.8,109.8z"/>
	</g>
	<g>
		<path d="M148.7,141.5C123.6,97.5,98.5,53.8,73.3,9.7C39.5,68.5,6.2,126.7-27.4,185.1h8.7c0.5-2.4,1.6-4.6,3.2-6.4h-1.1
			c16.2-28.3,32-55.9,48.2-84.1c5.3,4.4,10.6,8.6,15.7,13c6.2,5.3,6.2,5.4,11.9-0.7c5.4-5.7,10.7-11.4,16.1-17.3
			c11.4,9.9,21.8,18.8,32.2,27.9c10.2,8.9,21.5,19.6,31.5,28.7 M135.9,134c-6-5.2-12-10.3-18-15.5C104.8,107,91.6,95.6,78.5,84.1
			c-2.3-2-3.9-1.5-5.8,0.5c-5.5,5.8-11.2,11.3-16.7,17.1c-2,2.1-3.6,2.4-5.9,0.4C46.2,98.6,42.2,95.2,38,92c-2.6-2-2.8-3.9-1.3-6.6
			c10.8-18.6,21.5-37.2,32.2-55.8c1.3-2.2,2.7-4.4,4.4-7.3c21.5,37.5,42.5,74.2,63.5,110.9C136.5,133.5,136.2,133.8,135.9,134z"/>
	</g>
</g>
</svg>
