<?xml version="1.0" encoding="utf-8"?>
<!-- Generator: Adobe Illustrator 26.2.1, SVG Export Plug-In . SVG Version: 6.00 Build 0)  -->
<svg version="1.1" id="Layer_1" xmlns="http://www.w3.org/2000/svg" xmlns:xlink="http://www.w3.org/1999/xlink" x="0px" y="0px"
	 viewBox="0 0 498 494" style="enable-background:new 0 0 498 494;" xml:space="preserve">
<style type="text/css">
	.st0{fill:#FFFFFF;}
</style>
<path class="st0" d="M444.15,487c-10.37-2.8-17.76-9.8-25.09-17.17c-29.05-29.19-58.31-58.16-87.45-87.26
	c-1.29-1.28-2.14-3-3.06-4.31c-100.52,68.94-223.12,29.19-276.8-45.31C-8.97,248.68,2.08,139.08,71.51,69.78
	C142.4-0.98,254.77-7.87,335.31,52.06c76.19,56.69,110.63,178.01,43.58,275.84c1.3,0.81,3.14,1.53,4.42,2.8
	c30.47,30.36,60.34,61.35,91.47,91.01c24.44,23.29,11.75,58.6-15.91,64.64c-0.27,0.06-0.48,0.43-0.72,0.65
	C453.49,487,448.82,487,444.15,487z M213.3,340.62c70.63,0.28,127.68-56.45,128-127.3c0.33-71.06-55.99-127.48-126.64-128.72
	c-70.1-1.23-129.33,58.82-129.4,127.86C85.18,280.03,142.02,341.39,213.3,340.62z"/>
</svg>
