<?xml version="1.0" encoding="utf-8"?>
<!-- Generator: Adobe Illustrator 26.2.1, SVG Export Plug-In . SVG Version: 6.00 Build 0)  -->
<svg version="1.1" id="Layer_1" xmlns="http://www.w3.org/2000/svg" xmlns:xlink="http://www.w3.org/1999/xlink" x="0px" y="0px"
	 viewBox="0 0 549 149" style="enable-background:new 0 0 549 149;" xml:space="preserve">
<style type="text/css">
	.st0{fill:#F05B27;}
</style>
<g>
	<path class="st0" d="M122.6,62.5c6.1-1.1,11-4.3,15.7-9.3c0.1,1.7,0.2,2.7,0.2,3.7c0,21.3,0,42.6,0,63.9c0,6.4-2.2,11.9-7.6,16.1
		c0-3.9,0.1-7.7,0-11.6c-0.1-4.9,0.1-9.9-0.7-14.7c-1.8-10.9-11.7-19.1-22.8-19.2c-14.2-0.1-28.5-0.2-42.7,0
		c-12.9,0.2-23.2,10.8-23.5,24.2c-0.2,6.4,0,12.8,0,19.2c0,1.2,0,2.4,0,4.4c-5.3-3.5-7.7-8.1-9-13.4c-0.4-1.7-0.5-3.6-0.5-5.3
		c0-21.3,0-42.6,0-63.9c0-0.8,0.1-1.5,0.2-3.3c6.3,6.8,13.4,10.1,22.5,9.9"/>
	<path class="st0" d="M85.1,143.5c-9.5,0-19,0-28.6,0c-1.1,0-2.2,0-3.4,0c-6-0.3-6.3-0.6-6.3-6.6c0-7.1,0-14.1,0-21.2
		c0.1-11.1,8-19.1,19.1-19.1c13.4-0.1,26.9-0.1,40.3,0c11.1,0.1,19.1,8,19.2,19c0.1,7.6-0.1,15.2,0.1,22.8c0,2.3-0.6,3.7-3,4
		c-2.4,0.4-4.8,0.9-7.3,0.9C105.2,143.6,95.2,143.5,85.1,143.5z"/>
	<path class="st0" d="M143.9,97.8c0-8.9,0-17.9,0-26.9c0-1,0.5-2.1,0.7-3.1c1.1,0.3,2.4,0.4,3.3,1c5.5,3.4,9.3,8.3,10.1,14.7
		c1.4,11,2.4,22,3.2,33.1c0.5,6.8-4.5,12.4-11.1,13.6c-4.5,0.8-6.4-0.6-6.4-5.2C143.9,115.9,143.9,106.9,143.9,97.8z"/>
	<path class="st0" d="M26.4,98.4c0,8.8,0,17.7,0,26.5c0,4.8-1.8,6.2-6.5,5.3C13.2,128.8,8.4,122.9,9,116c0.8-10.6,1.7-21.2,3.1-31.7
		c0.9-6.9,4.8-12.2,10.8-15.8c2.8-1.7,3.5-1.2,3.6,2C26.4,79.8,26.4,89.1,26.4,98.4z"/>
	<path class="st0" d="M132.6,29c-3.2,0-6-2-7.2-4.8c-0.9,0.4-2,0.6-3,0.6c-4.3,0-7.7-3.5-7.7-7.7c0-1.3,0.3-2.6,0.9-3.6
		c-3.5-0.7-6.2-3.8-6.2-7.6c0-0.4,0-0.8,0.1-1.2c-0.8-0.1-1.6-0.2-2.6-0.3L63.5,4.8c-1.3,0.1-2.3,0.2-3.3,0.3
		C46.7,6.8,36.4,15.6,32.8,28.6c-3.6,12.9,2.7,25,14.7,28.3l71.8,0.6c8.5-0.5,16.4-7.1,18.6-15.7c1.2-4.7,0.9-9.7-0.6-14.4
		C136,28.4,134.4,29,132.6,29z"/>
</g>
<g>
	<path d="M201.2,56.3v-8.8c0-1.4-0.8-2.1-2.4-2.1h-9.3c-4.8,0-8.1-1-10.1-3.1s-2.9-5.1-2.9-9V20.5c0-8,4.7-12,14.1-12h13.2
		c9.4,0,14.1,4,14.1,12v7.4H201v-5.2c0-1.4-0.8-2.1-2.4-2.1h-2.8c-1.6,0-2.4,0.7-2.4,2.1v9.2c0,1.4,0.8,2.1,2.4,2.1h9.1
		c4.8,0,8.1,1,10.2,3s3,4.9,3,8.8v12.7c0,8-4.7,12-14.1,12h-13.1c-9.4,0-14.2-4-14.2-12v-7.4h16.9v5.2c0,1.4,0.8,2.1,2.4,2.1h2.8
		C200.4,58.4,201.2,57.7,201.2,56.3z"/>
	<path d="M250.6,8.6h16.9v50c0,8-4.7,12-14.2,12H239c-9.4,0-14.2-4-14.2-12v-50h16.9v47.7c0,1.4,0.8,2.1,2.4,2.1h4.1
		c1.6,0,2.4-0.7,2.4-2.1L250.6,8.6L250.6,8.6z"/>
	<path d="M292.1,48.5v22h-16.9V8.6h28.6c9.5,0,14.2,4,14.2,12v16c0,6.1-2.8,9.9-8.3,11.3l11.4,22.7H303l-9.8-22
		C293.1,48.5,292.1,48.5,292.1,48.5z M298.7,20.6h-6.6V37h6.6c1.6,0,2.4-0.7,2.4-2.1V22.7C301.1,21.3,300.3,20.6,298.7,20.6z"/>
	<path d="M354.1,8.6h17.5l-15.2,61.9h-19.6L321.6,8.6h17.5l7.4,41.4L354.1,8.6z"/>
	<path d="M376.2,8.6H393v61.9h-16.9V8.6H376.2z"/>
	<path d="M430.1,8.6h17.5l-15.2,61.9h-19.6L397.6,8.6h17.5l7.4,41.4L430.1,8.6z"/>
	<path d="M483.7,70.5l-1.9-9.3h-14.9l-2,9.3h-16.6l15.9-61.9h20.5l15.9,61.9H483.7z M469.5,49.2h9.6L474.4,27L469.5,49.2z"/>
	<path d="M521.4,58.4h19.2v12.1h-36.1V8.6h16.9V58.4L521.4,58.4z"/>
</g>
<g>
	<path d="M176.1,78.4h29.1c9.6,0,14.4,4,14.4,12.1v18c0,8.1-4.8,12.1-14.4,12.1h-11.9v20.5h-17.1V78.4H176.1z M202.4,106.3V92.8
		c0-1.4-0.8-2.2-2.4-2.2h-6.8v17.8h6.8C201.6,108.4,202.4,107.7,202.4,106.3z"/>
	<path d="M257.4,141.2l-1.9-9.4h-15.1l-2.1,9.4h-16.8l16.1-62.8h20.8l16.1,62.8H257.4z M243,119.7h9.8L248,97.1L243,119.7z"/>
	<path d="M320.6,101.9h-17.1V91.8c0-1.4-0.8-2.2-2.4-2.2h-3.4c-1.6,0-2.4,0.7-2.4,2.2v36c0,1.4,0.8,2.1,2.4,2.1h3.4
		c1.6,0,2.4-0.7,2.4-2.2V118h17.1v11c0,8.1-4.8,12.1-14.4,12.1h-13.8c-9.6,0-14.4-4-14.4-12.1V90.5c0-8.1,4.8-12.1,14.4-12.1h13.8
		c9.6,0,14.4,4,14.4,12.1V101.9z"/>
	<path d="M326.9,141.2V78.4H344v62.8H326.9L326.9,141.2z M362,109.1l12.3,32.1h-18.4l-11.7-32.1l11.6-30.7h18.4L362,109.1z"/>
</g>
</svg>
