<?xml version="1.0" encoding="utf-8"?>
<!-- Generator: Adobe Illustrator 26.3.1, SVG Export Plug-In . SVG Version: 6.00 Build 0)  -->
<svg version="1.1" id="Layer_1" xmlns="http://www.w3.org/2000/svg" xmlns:xlink="http://www.w3.org/1999/xlink" x="0px" y="0px"
	 viewBox="0 0 180 178.6" style="enable-background:new 0 0 180 178.6;" xml:space="preserve">
<style type="text/css">
	.st0{fill:#FFFFFF;}
</style>
<path class="st0" d="M174.5,32.3L33.2,173.5c-7.4,7.4-19.4,7.4-26.8-0.1l0,0c-7.4-7.4-7.4-19.4,0-26.7L147.7,5.5
	c7.4-7.4,19.4-7.4,26.7,0l0,0C181.8,12.9,181.9,24.9,174.5,32.3z"/>
<path class="st0" d="M147.7,173.5L6.5,32.2c-7.4-7.4-7.4-19.3,0-26.7l0,0c7.4-7.4,19.4-7.4,26.7,0l141.2,141.2
	c7.4,7.4,7.4,19.4,0,26.7l0,0C167,180.9,155.1,180.9,147.7,173.5z"/>
</svg>
